<?xml version="1.0" encoding="UTF-8"?>
<svg xmlns="http://www.w3.org/2000/svg" width="174.05" height="174.05" xmlns:xlink="http://www.w3.org/1999/xlink" viewBox="0 0 174.05 174.05">
  <defs>
    <clipPath id="clippath">
      <rect x="5.86" y="68.9" width="163.98" height="35.6" transform="translate(-23.44 33.33) rotate(-19)" style="fill: none;"/>
    </clipPath>
  </defs>
  <g style="clip-path: url(#clippath);">
    <path d="M46.47,104.81c-.56-.95-1.31-1.72-2.25-2.32-.94-.6-2.09-.99-3.45-1.19-1.35-.21-2.94-.22-4.75,0l-2.66.3c-.77.09-1.46.13-2.05.12-.58-.02-1.08-.1-1.48-.23-.39-.14-.7-.34-.92-.6-.21-.27-.33-.61-.37-1.01-.08-.5-.02-.99.17-1.46.21-.47.57-.91,1.08-1.32.53-.41,1.23-.77,2.12-1.07,1.39-.48,2.48-.53,3.27-.14.79.37,1.31,1.09,1.57,2.14l8.22-2.83c-.37-2.2-1.2-3.94-2.49-5.22-1.28-1.29-2.94-2.06-4.96-2.32-2.01-.26-4.3.05-6.85.93-2.51.87-4.66,2.08-6.44,3.64-1.77,1.54-3.07,3.3-3.88,5.28-.81,1.96-1.03,4.01-.67,6.14.45,2.61,1.6,4.39,3.46,5.34,1.86.95,4.24,1.27,7.14.96l3.26-.36c1.22-.14,2.2-.18,2.95-.1.75.08,1.31.26,1.69.54.37.29.6.68.68,1.18.1.54.02,1.08-.22,1.61-.24.53-.65,1.02-1.24,1.48-.58.45-1.33.84-2.26,1.16-1.09.38-2.06.52-2.91.43-.85-.09-1.55-.4-2.11-.95-.56-.54-.94-1.32-1.15-2.33l-8.15,2.81c.48,2.78,1.43,4.88,2.86,6.29,1.44,1.39,3.25,2.17,5.44,2.34,2.2.15,4.66-.24,7.4-1.18,2.68-.92,4.91-2.11,6.69-3.57,1.78-1.45,3.05-3.12,3.82-5,.77-1.88.97-3.92.6-6.12-.21-1.27-.6-2.39-1.16-3.33Z" data-el="character" style="fill: #ffffff;"/>
    <path d="M71.4,97.6c.01.73-.1,1.44-.32,2.13-.22.67-.55,1.3-.99,1.89-.44.58-.98,1.09-1.64,1.55-.65.45-1.41.83-2.27,1.13-1.3.45-2.46.51-3.48.18-1.01-.33-1.87-1.06-2.57-2.19-.69-1.13-1.21-2.67-1.56-4.63-.33-2.03-.34-3.87-.03-5.52.3-1.66.92-3.06,1.85-4.21.93-1.16,2.14-2,3.64-2.52.78-.27,1.5-.39,2.14-.36.64.03,1.22.2,1.72.52.5.3.92.72,1.26,1.26.35.54.61,1.18.8,1.93l8.59-2.96c-.52-2.02-1.31-3.7-2.38-5.04-1.06-1.34-2.34-2.33-3.83-2.98-1.48-.66-3.14-.98-4.98-.96-1.83.02-3.77.38-5.84,1.1-2.74.94-5.12,2.43-7.14,4.45-2.02,2.02-3.48,4.49-4.37,7.42-.89,2.92-1.03,6.21-.42,9.87.66,3.78,1.89,6.75,3.71,8.92,1.83,2.16,4.03,3.52,6.62,4.08,2.6.56,5.38.32,8.35-.7,2.27-.78,4.18-1.84,5.74-3.19,1.56-1.35,2.81-2.83,3.75-4.45.93-1.64,1.58-3.29,1.95-4.97.36-1.69.48-3.26.35-4.71l-8.65,2.98Z" data-el="character" style="fill: #ffffff;"/>
    <path d="M107.17,81.11c.73-1.99.89-4.18.48-6.58-.4-2.37-1.24-4.24-2.5-5.6-1.26-1.36-2.85-2.19-4.76-2.49-1.91-.3-4.04-.04-6.39.77l-13.65,4.7,5.65,33.44,8.59-2.96-1.85-11.04,2.96-1.02,7.42,9.12,9.33-3.21-8.54-10.27c1.5-1.41,2.6-3.02,3.28-4.86ZM90.19,76.2l3.03-1.04c.99-.34,1.86-.49,2.63-.44.76.04,1.39.29,1.87.77.48.47.81,1.18.98,2.13.17.96.11,1.79-.17,2.51-.29.71-.76,1.32-1.44,1.84-.68.51-1.52.94-2.53,1.29l-3.01,1.04-1.36-8.1Z" data-el="character" style="fill: #ffffff;"/>
    <polygon points="122.85 84.92 118.41 58.81 109.82 61.76 115.47 95.2 136.85 87.84 135.64 80.52 122.85 84.92" data-el="character" style="fill: #ffffff;"/>
    <polygon points="160.48 71.95 147.69 76.36 143.26 50.25 134.67 53.2 140.32 86.64 161.69 79.28 160.48 71.95" data-el="character" style="fill: #ffffff;"/>
  </g>
  <path d="M59.01,5.71c44.91-15.47,93.85,8.39,109.32,53.3,15.47,44.91-8.39,93.85-53.29,109.32-44.91,15.47-93.85-8.39-109.32-53.29C-9.76,70.13,14.1,21.19,59.01,5.71Z" data-el="circle" pathLength="100" style="fill: none; stroke: #fff; stroke-width: 2px;"/>
</svg>